<svg width="14" height="14" viewBox="0 0 14 14" fill="none" xmlns="http://www.w3.org/2000/svg">
<path d="M10.4524 8.35337C10.3013 8.49979 10.2319 8.71154 10.2663 8.91921L10.7849 11.7892C10.8286 12.0325 10.7259 12.2786 10.5224 12.4192C10.3229 12.565 10.0574 12.5825 9.83986 12.4659L7.25628 11.1184C7.16645 11.0705 7.0667 11.0449 6.96461 11.042H6.80653C6.7517 11.0501 6.69803 11.0676 6.64903 11.0945L4.06486 12.4484C3.93711 12.5125 3.79245 12.5353 3.6507 12.5125C3.30536 12.4472 3.07495 12.1182 3.13153 11.7711L3.6507 8.90112C3.68511 8.69171 3.6157 8.47879 3.46461 8.33004L1.3582 6.28837C1.18203 6.11746 1.12078 5.86079 1.20128 5.62921C1.27945 5.39821 1.47895 5.22962 1.71986 5.19171L4.61903 4.77112C4.83953 4.74837 5.0332 4.61421 5.13236 4.41587L6.40986 1.79671C6.4402 1.73837 6.47928 1.68471 6.52653 1.63921L6.57903 1.59837C6.60645 1.56804 6.63795 1.54296 6.67295 1.52254L6.73653 1.49921L6.8357 1.45837H7.08128C7.30061 1.48112 7.4937 1.61237 7.59461 1.80837L8.88903 4.41587C8.98236 4.60662 9.16378 4.73904 9.3732 4.77112L12.2724 5.19171C12.5174 5.22671 12.7221 5.39587 12.8032 5.62921C12.8796 5.86312 12.8137 6.11979 12.634 6.28837L10.4524 8.35337Z" fill="#F6BF4D"/>
</svg>
