<svg width="17" height="16" viewBox="0 0 17 16" fill="none" xmlns="http://www.w3.org/2000/svg">
<path opacity="0.4" d="M9.15088 2.07573L10.6352 5.05859C10.7446 5.2747 10.9533 5.42477 11.194 5.45812L14.528 5.94371C14.7228 5.97105 14.8995 6.07377 15.0188 6.23052C15.1368 6.38526 15.1875 6.58136 15.1588 6.77413C15.1355 6.93421 15.0602 7.08229 14.9448 7.19568L12.5289 9.53754C12.3522 9.70095 12.2722 9.94308 12.3149 10.1799L12.9097 13.4722C12.973 13.8697 12.7097 14.2446 12.3149 14.32C12.1522 14.346 11.9855 14.3186 11.8388 14.2439L8.86482 12.6945C8.6441 12.5831 8.38338 12.5831 8.16267 12.6945L5.18869 14.2439C4.82328 14.438 4.37051 14.306 4.16714 13.9458C4.09179 13.8024 4.06512 13.639 4.08979 13.4795L4.68458 10.1865C4.72726 9.95042 4.64657 9.70696 4.47054 9.54354L2.05468 7.20301C1.76729 6.92554 1.75862 6.46864 2.03534 6.18116C2.04134 6.17516 2.04801 6.16849 2.05468 6.16182C2.16937 6.04509 2.32007 5.97105 2.48277 5.95171L5.81683 5.46546C6.05688 5.43144 6.26559 5.2827 6.37561 5.06526L7.80659 2.07573C7.93395 1.8196 8.19801 1.66019 8.48474 1.66686H8.57409C8.82281 1.69687 9.03952 1.85095 9.15088 2.07573Z" fill="#9757D7"/>
<path d="M8.49469 12.6114C8.36555 12.6154 8.23975 12.6501 8.12659 12.7122L5.16715 14.2581C4.80505 14.4309 4.37171 14.2968 4.16869 13.9505C4.09348 13.8091 4.06619 13.6469 4.09148 13.4881L4.68257 10.2021C4.72251 9.96324 4.64263 9.72038 4.4689 9.55224L2.05196 7.21232C1.76507 6.93142 1.75975 6.47037 2.04065 6.1828C2.04464 6.1788 2.04797 6.17546 2.05196 6.17213C2.16645 6.0587 2.31422 5.98397 2.47331 5.96062L5.81016 5.46955C6.05179 5.43886 6.26147 5.28807 6.36797 5.06922L7.8184 2.04207C7.95618 1.79787 8.22044 1.65242 8.50001 1.66776C8.49469 1.86592 8.49469 12.4766 8.49469 12.6114Z" fill="#9757D7"/>
</svg>
